# xmcd CD database file
#
# Track frame offsets:
#	150
#	15296
#	31374
#	50260
#	71955
#	92271
#	116317
#	134269
#	152649
#	174563
#	195919
#
# Disc length: 2941 seconds
#
# Revision: 0
# Processed by: cddbd v1.5.2PL0 Copyright (c) Steve Scherf et al.
# Submitted via: CDex 1.70beta2
#
DISCID=7d0b7b0b
DTITLE=C-CLAYS - 彩麗 -Xirai-
DYEAR=2009
DGENRE=東方アレンジ
TTITLE0=Spring Shower
TTITLE1=ナイアガラ・オン・ザ・レイク
TTITLE2=Cyber DOLL
TTITLE3=Seasons
TTITLE4=Prunus
TTITLE5=Vintage Op.21
TTITLE6=Spring Is Here
TTITLE7=Flame of the quietness
TTITLE8=Optimistic Bits
TTITLE9=Secret Agent GIRL
TTITLE10=Visualize ～愛しき人へ
EXTD=YEAR: 2009
EXTT0=
EXTT1=
EXTT2=
EXTT3=
EXTT4=
EXTT5=
EXTT6=
EXTT7=
EXTT8=
EXTT9=
EXTT10=
PLAYORDER=
